#N canvas 98 24 2594 1085 12;
#X declare -path Abstractions;
#X obj 288 306 dac~;
#X obj 245 145 message2symbol;
#X obj 43 53 declare -path Abstractions;
#X msg 247 174 open \$1 \, 1;
#X obj 516 120 r kick_bang;
#X obj 288 282 *~ 0.5;
#X obj 732 205 print;
#X obj 374 70 metro 500;
#X obj 244 18 loadbang;
#X msg 245 118 Acoustic Kick 01.wav;
#X obj 347 205 soundfiler;
#X msg 347 173 read -resize \$1 audioData;
#N canvas 0 50 450 250 (subpatch) 0;
#X array audioData 9199 float 2;
#X coords 0 1 9199 -1 200 140 1;
#X restore 1066 219 graph;
#X obj 518 286 tabplay~ audioData, f 17;
#X connect 1 0 3 0;
#X connect 1 0 11 0;
#X connect 4 0 6 0;
#X connect 4 0 13 0;
#X connect 5 0 0 0;
#X connect 8 0 7 0;
#X connect 8 0 9 0;
#X connect 9 0 1 0;
#X connect 11 0 10 0;
#X connect 13 0 5 0;
