#N canvas 208 588 840 634 12;
#X obj 74 141 osc~;
#X obj 74 221 osc~;
#X text 359 24 depth;
#X obj 249 29 inlet~;
#X obj 72 262 outlet~;
#X obj 172 26 inlet~;
#X obj 74 173 *~;
#X obj 70 23 inlet~;
#X obj 20 106 *~;
#X obj 20 138 +~;
#X obj 74 198 +~;
#X obj 307 25 inlet~;
#X obj 17 75 receive~ \$0-feedback;
#X obj 129 237 send~ \$0-feedback;
#X connect 0 0 6 0;
#X connect 1 0 4 0;
#X connect 1 0 13 0;
#X connect 3 0 10 1;
#X connect 5 0 8 1;
#X connect 6 0 10 0;
#X connect 7 0 9 1;
#X connect 8 0 9 0;
#X connect 9 0 0 0;
#X connect 10 0 1 0;
#X connect 11 0 6 1;
#X connect 12 0 8 0;
