#N canvas 156 156 450 300 12;
#X msg 19 84 1;
#X obj 20 15 inlet;
#X obj 19 57 t b f;
#X obj 22 113 -;
#X obj 22 146 outlet;
#X connect 0 0 3 0;
#X connect 1 0 2 0;
#X connect 2 0 0 0;
#X connect 2 1 3 1;
#X connect 3 0 4 0;
