#N canvas 104 446 772 649 12;
#X obj 11 63 scale-builder;
#X msg 42 1 0 2 4 6 8 10;
#X msg 43 30 0 1 2 3 4 5 6 7 8 9 10 11;
#X msg 24 -26 0 2 4 5 7 9 11;
#X msg 5 -50 0 2 3 5 7 8 11;
#X floatatom 162 -66 5 0 0 0 - - - 0;
#X floatatom 191 -95 5 0 0 0 - - - 0;
#X obj 6 -81 sel 0 1 2 3;
#X obj 9 103 outlet;
#X text 127 -66 low;
#X text 235 -98 high;
#X obj 98 -151 inlet;
#X obj 97 -125 unpack f f f f;
#X connect 0 0 8 0;
#X connect 1 0 0 0;
#X connect 2 0 0 0;
#X connect 3 0 0 0;
#X connect 4 0 0 0;
#X connect 5 0 0 1;
#X connect 6 0 0 2;
#X connect 7 0 4 0;
#X connect 7 1 3 0;
#X connect 7 2 1 0;
#X connect 7 3 2 0;
#X connect 11 0 12 0;
#X connect 12 0 7 0;
#X connect 12 1 0 3;
#X connect 12 2 5 0;
#X connect 12 3 6 0;
#X coords 0 324.5 1 323.5 150 150 0;
