#N canvas 1492 176 1326 605 12;
#X obj 15 246 list store;
#X obj 216 393 list store;
#X obj 21 307 list store;
#X obj 354 371 list store;
#X obj 17 12 inlet;
#X text 76 11 pitch list;
#X obj 155 15 inlet;
#X obj 252 15 inlet;
#X obj 77 560 outlet;
#X text 196 14 offset;
#X text 300 11 range;
#X obj 477 146 list-add-scal 48;
#X obj 346 158 list-add-scal 36;
#X obj 216 160 list-add-scal 24;
#X obj 98 131 list-add-scal 12;
#X obj 478 243 list-add-scal 0;
#X obj 349 259 list-add-scal 0;
#X obj 223 218 list-add-scal 0;
#X obj 98 219 list-add-scal 0;
#X obj 13 189 list-add-scal 0;
#X obj 358 12 inlet;
#X text 409 13 key;
#X obj 50 369 list-moses 12;
#X obj 83 485 list-moses 120;
#X obj 604 244 list-add-scal 0;
#X obj 752 245 list-add-scal 0;
#X obj 894 247 list-add-scal 0;
#X obj 603 147 list-add-scal 60;
#X obj 751 148 list-add-scal 72;
#X obj 892 144 list-add-scal 84;
#X obj 1027 240 list-add-scal 0;
#X obj 1026 144 list-add-scal 96;
#X obj 1165 237 list-add-scal 0;
#X obj 1164 141 list-add-scal 108;
#X obj 1041 355 list store;
#X obj 777 361 list store;
#X obj 771 407 list store;
#X obj 574 393 list store;
#X obj 453 423 list store;
#X obj 40 54 t l l l l l l l l l l;
#X connect 0 0 2 0;
#X connect 1 0 2 1;
#X connect 2 0 22 0;
#X connect 3 0 38 0;
#X connect 4 0 39 0;
#X connect 6 0 22 1;
#X connect 7 0 23 1;
#X connect 11 0 15 0;
#X connect 12 0 16 0;
#X connect 13 0 17 0;
#X connect 14 0 18 0;
#X connect 15 0 3 1;
#X connect 16 0 3 0;
#X connect 17 0 1 0;
#X connect 18 0 0 1;
#X connect 19 0 0 0;
#X connect 20 0 15 1;
#X connect 20 0 16 1;
#X connect 20 0 17 1;
#X connect 20 0 18 1;
#X connect 20 0 19 1;
#X connect 20 0 24 1;
#X connect 20 0 25 1;
#X connect 20 0 26 1;
#X connect 20 0 30 1;
#X connect 20 0 32 1;
#X connect 22 1 23 0;
#X connect 23 0 8 0;
#X connect 24 0 37 0;
#X connect 25 0 35 0;
#X connect 26 0 35 1;
#X connect 27 0 24 0;
#X connect 28 0 25 0;
#X connect 29 0 26 0;
#X connect 30 0 34 0;
#X connect 31 0 30 0;
#X connect 32 0 34 1;
#X connect 33 0 32 0;
#X connect 34 0 36 1;
#X connect 35 0 36 0;
#X connect 36 0 37 1;
#X connect 37 0 38 1;
#X connect 38 0 1 1;
#X connect 39 0 19 0;
#X connect 39 1 14 0;
#X connect 39 2 13 0;
#X connect 39 3 12 0;
#X connect 39 4 11 0;
#X connect 39 5 27 0;
#X connect 39 6 28 0;
#X connect 39 7 29 0;
#X connect 39 8 31 0;
#X connect 39 9 33 0;
