#N canvas 104 104 1556 991 12;
#X obj 11 317 scale-builder;
#X obj 279 231 route major minor chromatic whole;
#X msg 220 315 0 2 4 6 8 10;
#X msg 219 337 0 1 2 3 4 5 6 7 8 9 10 11;
#X msg 218 290 0 2 4 5 7 9 11;
#X msg 221 266 0 2 3 5 7 8 11;
#X obj 11 241 list;
#X obj 143 13 vradio 12 1 0 12 empty empty empty 0 -10 0 8 #fcfcfc #000000 #000000 0;
#X floatatom 13 91 5 0 0 0 - - - 0;
#X floatatom 15 121 5 0 0 0 - - - 0;
#X obj 142 170 t b f;
#X obj 12 200 t b f;
#X obj 12 167 t b f;
#X obj 171 -10 loadbang;
#X obj 218 225 loadbang;
#X obj 182 96 loadbang;
#X msg 182 130 12;
#X obj 19 34 vradio 12 1 0 4 empty empty empty 0 -10 0 8 #fcfcfc #000000 #000000 0;
#X obj 212 13 sel 0 1 2 3;
#X text 37 30 scale;
#X text 103 140 key;
#X symbolatom 39 56 10 0 0 0 - - - 0;
#X obj 213 157 route set;
#X msg 212 42 set major;
#X msg 229 67 set minor;
#X msg 248 93 set chromatic;
#X msg 270 120 set whole;
#X obj 12 362 outlet;
#X text 54 93 low;
#X text 51 118 high;
#X obj 393 13 inlet;
#X obj 392 39 unpack f f f f;
#X obj 468 168 print 1;
#X obj 535 165 print 2;
#X obj 588 185 print 3;
#X obj 691 187 print 4;
#X connect 0 0 27 0;
#X connect 1 0 4 0;
#X connect 1 1 5 0;
#X connect 1 2 3 0;
#X connect 1 3 2 0;
#X connect 2 0 6 1;
#X connect 2 0 0 0;
#X connect 3 0 6 1;
#X connect 3 0 0 0;
#X connect 4 0 0 0;
#X connect 4 0 6 1;
#X connect 5 0 0 0;
#X connect 5 0 6 1;
#X connect 6 0 0 0;
#X connect 7 0 10 0;
#X connect 8 0 12 0;
#X connect 9 0 11 0;
#X connect 10 0 6 0;
#X connect 10 1 0 3;
#X connect 11 0 6 0;
#X connect 11 1 0 2;
#X connect 12 0 6 0;
#X connect 12 1 0 1;
#X connect 13 0 23 0;
#X connect 14 0 5 0;
#X connect 15 0 16 0;
#X connect 16 0 9 0;
#X connect 16 0 8 0;
#X connect 17 0 18 0;
#X connect 18 0 23 0;
#X connect 18 1 24 0;
#X connect 18 2 25 0;
#X connect 18 3 26 0;
#X connect 22 0 1 0;
#X connect 23 0 22 0;
#X connect 23 0 21 0;
#X connect 24 0 22 0;
#X connect 24 0 21 0;
#X connect 25 0 22 0;
#X connect 25 0 21 0;
#X connect 26 0 22 0;
#X connect 26 0 21 0;
#X connect 30 0 31 0;
#X connect 31 0 17 0;
#X connect 31 0 32 0;
#X connect 31 1 7 0;
#X connect 31 1 33 0;
#X connect 31 2 8 0;
#X connect 31 2 34 0;
#X connect 31 3 9 0;
#X connect 31 3 35 0;
#X coords 0 -1 1 1 150 150 1 10 10;
